<svg width="24" height="24" viewBox="0 0 24 24" fill="none" xmlns="http://www.w3.org/2000/svg">
<g clip-path="url(#clip0_11_636)">
<path d="M24 12C24 5.373 18.628 0 12 0C5.373 0 0 5.373 0 12C0 18.627 5.373 24 12 24C18.628 24 24 18.627 24 12ZM13.233 15.75C13.233 16.0815 13.1013 16.3995 12.8669 16.6339C12.6325 16.8683 12.3145 17 11.983 17C11.6515 17 11.3335 16.8683 11.0991 16.6339C10.8647 16.3995 10.733 16.0815 10.733 15.75V11.802L9.702 12.833C9.46755 13.0675 9.14956 13.1992 8.818 13.1992C8.48644 13.1992 8.16845 13.0675 7.934 12.833C7.69955 12.5985 7.56784 12.2806 7.56784 11.949C7.56784 11.6174 7.69955 11.2995 7.934 11.065L12 7L16.066 11.065C16.3005 11.2995 16.4322 11.6174 16.4322 11.949C16.4322 12.2806 16.3005 12.5985 16.066 12.833C15.8315 13.0675 15.5136 13.1992 15.182 13.1992C14.8504 13.1992 14.5325 13.0675 14.298 12.833L13.233 11.768V15.75Z" fill="#111111"/>
</g>
<defs>
<clipPath id="clip0_11_636">
<rect width="24" height="24" fill="white"/>
</clipPath>
</defs>
</svg>
