<svg width="24" height="24" viewBox="0 0 24 24" fill="none" xmlns="http://www.w3.org/2000/svg">
<path d="M15.18 12L22.34 4.84C23.22 3.96 23.22 2.54 22.34 1.66C21.46 0.78 20.04 0.78 19.16 1.66L12 8.82L4.84 1.66C3.96 0.78 2.54 0.78 1.66 1.66C0.78 2.54 0.78 3.96 1.66 4.84L8.82 12L1.66 19.16C0.78 20.04 0.78 21.46 1.66 22.34C2.1 22.78 2.67 23 3.25 23C3.83 23 4.4 22.78 4.84 22.34L12 15.18L19.16 22.34C19.6 22.78 20.17 23 20.75 23C21.33 23 21.9 22.78 22.34 22.34C23.22 21.46 23.22 20.04 22.34 19.16L15.18 12Z" fill="#111111"/>
</svg>
