<svg width="22" height="18" viewBox="0 0 22 18" fill="none" xmlns="http://www.w3.org/2000/svg">
<path d="M7.415 1.586C7.59949 1.39498 7.82018 1.24262 8.06419 1.1378C8.3082 1.03298 8.57064 0.977809 8.8362 0.975501C9.10176 0.973194 9.36512 1.0238 9.61091 1.12436C9.8567 1.22492 10.08 1.37343 10.2678 1.56121C10.4556 1.749 10.6041 1.9723 10.7046 2.21809C10.8052 2.46389 10.8558 2.72725 10.8535 2.9928C10.8512 3.25836 10.796 3.5208 10.6912 3.76481C10.5864 4.00882 10.434 4.22951 10.243 4.414L7.657 7H20C20.5304 7 21.0391 7.21072 21.4142 7.58579C21.7893 7.96086 22 8.46957 22 9C22 9.53043 21.7893 10.0391 21.4142 10.4142C21.0391 10.7893 20.5304 11 20 11H7.657L10.243 13.586C10.434 13.7705 10.5864 13.9912 10.6912 14.2352C10.796 14.4792 10.8512 14.7416 10.8535 15.0072C10.8558 15.2728 10.8052 15.5361 10.7046 15.7819C10.6041 16.0277 10.4556 16.251 10.2678 16.4388C10.08 16.6266 9.8567 16.7751 9.61091 16.8756C9.36512 16.9762 9.10176 17.0268 8.8362 17.0245C8.57064 17.0222 8.3082 16.967 8.06419 16.8622C7.82018 16.7574 7.59949 16.605 7.415 16.414L0 9L7.415 1.586Z" fill="#111111"/>
</svg>
