<svg width="24" height="24" viewBox="0 0 24 24" fill="none" xmlns="http://www.w3.org/2000/svg">
<g clip-path="url(#clip0_206_1735)">
<rect width="24" height="24" fill="white"/>
<g clip-path="url(#clip1_206_1735)">
<path d="M4.04004 21C4.46754 21 4.89504 20.835 5.21754 20.505L13.625 12L5.21754 3.495C4.57254 2.835 3.51504 2.835 2.86254 3.495C2.21004 4.155 2.21004 5.22 2.86254 5.88L8.90754 12L2.86254 18.12C2.21004 18.78 2.21004 19.845 2.86254 20.505C3.18504 20.835 3.61254 21 4.04004 21Z" fill="#111111"/>
</g>
<g clip-path="url(#clip2_206_1735)">
<path d="M13.04 21C13.4675 21 13.895 20.835 14.2175 20.505L22.625 12L14.2175 3.495C13.5725 2.835 12.515 2.835 11.8625 3.495C11.21 4.155 11.21 5.22 11.8625 5.88L17.9075 12L11.8625 18.12C11.21 18.78 11.21 19.845 11.8625 20.505C12.185 20.835 12.6125 21 13.04 21Z" fill="#111111"/>
</g>
</g>
<defs>
<clipPath id="clip0_206_1735">
<rect width="24" height="24" fill="white"/>
</clipPath>
<clipPath id="clip1_206_1735">
<rect width="18" height="18" fill="white" transform="translate(-1 3)"/>
</clipPath>
<clipPath id="clip2_206_1735">
<rect width="18" height="18" fill="white" transform="translate(8 3)"/>
</clipPath>
</defs>
</svg>
