<svg width="24" height="24" viewBox="0 0 24 24" fill="none" xmlns="http://www.w3.org/2000/svg">
<path d="M21 14C21.5304 14 22.0391 14.2107 22.4142 14.5858C22.7893 14.9609 23 15.4696 23 16V22C23 22.5304 22.7893 23.0391 22.4142 23.4142C22.0391 23.7893 21.5304 24 21 24H3C2.46957 24 1.96086 23.7893 1.58579 23.4142C1.21071 23.0391 1 22.5304 1 22V16C1 15.4696 1.21071 14.9609 1.58579 14.5858C1.96086 14.2107 2.46957 14 3 14C3.53043 14 4.03914 14.2107 4.41421 14.5858C4.78929 14.9609 5 15.4696 5 16V20H19V16C19 15.4696 19.2107 14.9609 19.5858 14.5858C19.9609 14.2107 20.4696 14 21 14ZM8.815 6.987L9.991 8.165V2C9.991 1.46957 10.2017 0.960859 10.5768 0.585786C10.9519 0.210714 11.4606 0 11.991 0C12.5214 0 13.0301 0.210714 13.4052 0.585786C13.7803 0.960859 13.991 1.46957 13.991 2V8.178L15.187 6.985C15.3729 6.79944 15.5935 6.65231 15.8362 6.55202C16.079 6.45172 16.3391 6.40022 16.6018 6.40045C16.8644 6.40068 17.1245 6.45264 17.367 6.55337C17.6096 6.6541 17.8299 6.80161 18.0155 6.9875C18.2011 7.17339 18.3482 7.394 18.4485 7.63675C18.5488 7.87949 18.6003 8.13962 18.6001 8.40227C18.5998 8.66492 18.5479 8.92495 18.4471 9.16752C18.3464 9.41009 18.1989 9.63044 18.013 9.816L11.988 15.829L5.984 9.813C5.79844 9.62711 5.65131 9.4065 5.55102 9.16375C5.45072 8.92101 5.39922 8.66088 5.39945 8.39823C5.39992 7.86779 5.61109 7.35925 5.9865 6.9845C6.36191 6.60975 6.87082 6.39948 7.40127 6.39995C7.93171 6.40042 8.44025 6.61159 8.815 6.987Z" fill="#111111"/>
</svg>
