<svg width="24" height="24" viewBox="0 0 24 24" fill="none" xmlns="http://www.w3.org/2000/svg">
<g clip-path="url(#clip0_11_528)">
<path d="M9 19.5C8.77012 19.4999 8.54251 19.4546 8.33015 19.3666C8.11779 19.2785 7.92486 19.1495 7.76236 18.9869C7.59985 18.8243 7.47097 18.6313 7.38306 18.4189C7.29515 18.2065 7.24993 17.9789 7.25 17.749C7.25007 17.5191 7.29541 17.2915 7.38344 17.0792C7.47147 16.8668 7.60047 16.6739 7.76306 16.5114C7.92566 16.3489 8.11867 16.22 8.33107 16.1321C8.54348 16.0441 8.77112 15.9989 9.001 15.999C9.46526 15.9991 9.91045 16.1837 10.2386 16.5121C10.5668 16.8404 10.7511 17.2857 10.751 17.75C10.7509 18.2143 10.5663 18.6595 10.2379 18.9876C9.90956 19.3158 9.46426 19.5001 9 19.5ZM22.25 16H13.929C13.205 13.966 11.283 12.5 9 12.5C6.717 12.5 4.795 13.966 4.071 16H1.75C1.28587 16 0.840752 16.1844 0.512563 16.5126C0.184374 16.8408 0 17.2859 0 17.75C0 18.2141 0.184374 18.6592 0.512563 18.9874C0.840752 19.3156 1.28587 19.5 1.75 19.5H4.071C4.795 21.534 6.717 23 9 23C11.283 23 13.205 21.534 13.929 19.5H22.25C22.7141 19.5 23.1592 19.3156 23.4874 18.9874C23.8156 18.6592 24 18.2141 24 17.75C24 17.2859 23.8156 16.8408 23.4874 16.5126C23.1592 16.1844 22.7141 16 22.25 16ZM15 4.5C15.4643 4.50013 15.9095 4.68469 16.2376 5.01306C16.5658 5.34144 16.7501 5.78674 16.75 6.251C16.7499 6.71526 16.5653 7.16046 16.2369 7.48864C15.9086 7.81683 15.4633 8.00113 14.999 8.001C14.7691 8.00093 14.5415 7.95559 14.3292 7.86756C14.1168 7.77953 13.9239 7.65053 13.7614 7.48794C13.5989 7.32534 13.47 7.13233 13.3821 6.91993C13.2941 6.70752 13.2489 6.47988 13.249 6.25C13.2491 6.02012 13.2944 5.79251 13.3824 5.58015C13.4705 5.3678 13.5995 5.17486 13.7621 5.01236C13.9247 4.84985 14.1177 4.72097 14.3301 4.63306C14.5425 4.54515 14.7701 4.49993 15 4.5ZM1.75 8H10.071C10.795 10.034 12.717 11.5 15 11.5C17.283 11.5 19.205 10.034 19.929 8H22.25C22.7141 8 23.1592 7.81563 23.4874 7.48744C23.8156 7.15925 24 6.71413 24 6.25C24 5.78587 23.8156 5.34075 23.4874 5.01256C23.1592 4.68437 22.7141 4.5 22.25 4.5H19.929C19.205 2.466 17.283 1 15 1C12.717 1 10.795 2.466 10.071 4.5H1.75C1.28587 4.5 0.840752 4.68437 0.512563 5.01256C0.184374 5.34075 0 5.78587 0 6.25C0 6.71413 0.184374 7.15925 0.512563 7.48744C0.840752 7.81563 1.28587 8 1.75 8Z" fill="#111111"/>
</g>
<defs>
<clipPath id="clip0_11_528">
<rect width="24" height="24" fill="white"/>
</clipPath>
</defs>
</svg>
