<svg width="24" height="21" viewBox="0 0 24 21" fill="none" xmlns="http://www.w3.org/2000/svg">
<path d="M5.94 3.5C6.86 3.5 7.77 3.87 8.43 4.52L9.91 5.96L12 8L14.09 5.96L15.57 4.52C16.237 3.87093 17.1294 3.50536 18.06 3.5C18.55 3.5 19.26 3.61 19.91 4.13C20.2278 4.37595 20.489 4.68745 20.6758 5.04332C20.8625 5.39919 20.9705 5.7911 20.9923 6.1924C21.0141 6.59371 20.9493 6.995 20.8022 7.36903C20.6552 7.74305 20.4293 8.08103 20.14 8.36L20.07 8.43L20 8.51C19.94 8.58 14.41 14.73 12 17.26C9.59 14.72 4.06 8.57 4 8.51L3.94 8.43L3.86 8.36C3.57316 8.08253 3.34825 7.74752 3.20003 7.37698C3.05182 7.00644 2.98365 6.60875 3 6.21C3.05104 5.46818 3.38412 4.77405 3.93085 4.27009C4.47758 3.76613 5.19649 3.49058 5.94 3.5ZM18.06 0.499997C16.3486 0.505958 14.7065 1.17644 13.48 2.37L12 3.81L10.52 2.37C9.29352 1.17644 7.65137 0.505958 5.94 0.499997C4.61 0.499997 3.29 0.919997 2.21 1.79C1.561 2.30233 1.02905 2.9475 0.649813 3.68225C0.270577 4.417 0.0528229 5.22435 0.0111542 6.05015C-0.0305146 6.87595 0.104865 7.70111 0.408214 8.4703C0.711563 9.2395 1.17587 9.93494 1.77 10.51C1.77 10.51 8.06 17.52 10.25 19.77C10.72 20.26 11.36 20.5 12 20.5C12.64 20.5 13.28 20.26 13.75 19.77C15.94 17.52 22.23 10.51 22.23 10.51C22.8241 9.93494 23.2884 9.2395 23.5918 8.4703C23.8951 7.70111 24.0305 6.87595 23.9888 6.05015C23.9472 5.22435 23.7294 4.417 23.3502 3.68225C22.9709 2.9475 22.439 2.30233 21.79 1.79C20.7312 0.945279 19.4144 0.489871 18.06 0.499997Z" fill="#111111"/>
</svg>
