<svg width="24" height="24" viewBox="0 0 24 24" fill="none" xmlns="http://www.w3.org/2000/svg">
<g clip-path="url(#clip0_11_510)">
<path d="M21 7.23998L16.95 11.29L15.89 10.23L16.56 9.55999C16.7074 9.42266 16.8256 9.25706 16.9076 9.07306C16.9896 8.88906 17.0337 8.69044 17.0372 8.48903C17.0408 8.28762 17.0037 8.08757 16.9283 7.90079C16.8528 7.71401 16.7406 7.54435 16.5981 7.40191C16.4557 7.25947 16.286 7.14718 16.0992 7.07174C15.9125 6.9963 15.7124 6.95925 15.511 6.9628C15.3096 6.96635 15.111 7.01044 14.927 7.09242C14.743 7.17441 14.5774 7.29261 14.44 7.43998L13.77 8.10998L12.71 7.04998L16.76 2.99998L21 7.23998ZM11.3 16.94L7.23005 21L3.00005 16.76L7.05005 12.71L8.11005 13.77L7.44005 14.44C7.17509 14.7243 7.03084 15.1004 7.0377 15.489C7.04455 15.8776 7.20198 16.2484 7.4768 16.5232C7.75163 16.7981 8.1224 16.9555 8.511 16.9623C8.8996 16.9692 9.2757 16.8249 9.56005 16.56L10.23 15.89L11.3 16.94ZM14.63 0.889985L10.58 4.93998C10.0182 5.50249 9.70269 6.26498 9.70269 7.05998C9.70269 7.85499 10.0182 8.61748 10.58 9.17999L11.64 10.24L10.22 11.66L9.16005 10.6C8.59754 10.0382 7.83505 9.72262 7.04005 9.72262C6.24504 9.72262 5.48255 10.0382 4.92005 10.6L0.880046 14.64C0.318244 15.2025 0.00268555 15.965 0.00268555 16.76C0.00268555 17.555 0.318244 18.3175 0.880046 18.88L5.12005 23.12C5.68255 23.6818 6.44504 23.9973 7.24005 23.9973C8.03505 23.9973 8.79754 23.6818 9.36005 23.12L13.41 19.07C13.9718 18.5075 14.2874 17.745 14.2874 16.95C14.2874 16.155 13.9718 15.3925 13.41 14.83L12.35 13.77L13.77 12.35L14.83 13.41C15.3925 13.9718 16.155 14.2873 16.95 14.2873C17.745 14.2873 18.5075 13.9718 19.07 13.41L23.12 9.35998C23.6818 8.79748 23.9974 8.03499 23.9974 7.23998C23.9974 6.44498 23.6818 5.68249 23.12 5.11998L18.88 0.879985C18.3175 0.318183 17.555 0.00262451 16.76 0.00262451C15.965 0.00262451 15.2025 0.318183 14.64 0.879985L14.63 0.889985Z" fill="#111111"/>
</g>
<defs>
<clipPath id="clip0_11_510">
<rect width="24" height="24" fill="white"/>
</clipPath>
</defs>
</svg>
