<svg width="24" height="24" viewBox="0 0 24 24" fill="none" xmlns="http://www.w3.org/2000/svg">
<path d="M14.34 21.2C14.34 22.77 13.15 24 11.56 24C9.98 24 8.79 22.77 8.79 21.2C8.79 19.63 9.98 18.4 11.56 18.4C13.15 18.4 14.34 19.63 14.34 21.2ZM11.81 10.32C13.22 9.09 15.11 8.27 15.11 6.45C15.11 5 13.87 4.09 12.16 4.09C10.04 4.09 8.64 5.57 8.61 7.52H3.75C3.88 3.3 6.96 0 12.34 0C17.2 0 20.25 2.52 20.25 6.32C20.25 8.68 19.16 10.13 17.95 11.1C16.27 12.43 15.11 12.99 14.46 13.71C13.96 14.28 13.84 14.75 13.81 15.66H9.45C9.45 13.02 10.1 11.76 11.81 10.32Z" fill="#111111"/>
</svg>
